<?xml version="1.0" encoding="UTF-8" standalone="no"?>
<svg width="560px" height="67px" viewBox="0 0 560 67" version="1.1" xmlns="http://www.w3.org/2000/svg" xmlns:xlink="http://www.w3.org/1999/xlink" xmlns:sketch="http://www.bohemiancoding.com/sketch/ns">
    <title>ghibil-japanese</title>
    <description>Created with Sketch (http://www.bohemiancoding.com/sketch)</description>
    <defs></defs>
    <g id="Page-1" stroke="none" stroke-width="1" fill="none" fill-rule="evenodd" sketch:type="MSPage">
        <g id="Group" sketch:type="MSLayerGroup" transform="translate(1.000000, 0.000000)" fill="#FFFFFF">
            <path d="M3.463,7.976 L3.463,15.826 L39.397,15.826 C35.908,25.419 30.152,34.141 22.303,41.817 C15.151,49.143 7.824,54.027 -0.374,56.818 L4.51,63.272 C14.104,59.26 23.35,52.631 32.071,42.339 L53.352,63.62 L59.632,56.818 L36.432,36.583 C42.711,27.861 47.596,18.268 50.038,7.976 L3.463,7.976" id="Fill-14" sketch:type="MSShapeGroup"></path>
            <path d="M83.878,20.186 L108.125,20.186 C106.555,27.338 103.763,33.269 99.752,38.502 L83.878,28.384 L78.47,33.618 L94.519,44.258 C85.797,51.585 76.028,56.469 65.04,58.387 L69.4,65.19 C96.96,58.911 113.357,41.467 117.718,13.383 L88.239,13.383 L92.077,6.057 L83.878,4.138 C78.994,16.698 71.319,25.942 60.678,31.176 L65.912,37.106 L83.878,20.186" id="Fill-15" sketch:type="MSShapeGroup"></path>
            <path d="M177.201,20.535 L169.351,17.221 C164.99,30.303 159.757,39.898 152.605,45.305 C146.326,50.537 136.034,53.504 123.126,54.549 L125.045,62.748 C140.046,61.178 151.036,56.818 159.409,50.189 C166.037,43.91 171.968,34.141 177.201,20.535" id="Fill-16" sketch:type="MSShapeGroup"></path>
            <path d="M180.167,11.813 L176.853,1.696 L170.921,2.743 L174.759,13.383 L180.167,11.813" id="Fill-17" sketch:type="MSShapeGroup"></path>
            <path d="M122.079,22.453 L119.114,29.781 L138.477,37.455 L141.441,29.781 L122.079,22.453" id="Fill-18" sketch:type="MSShapeGroup"></path>
            <path d="M127.836,7.104 L124.522,14.256 C131.325,16.173 137.604,18.617 143.883,21.581 L147.198,14.256 L127.836,7.104" id="Fill-19" sketch:type="MSShapeGroup"></path>
            <path d="M161.327,3.615 L164.642,14.779 L170.398,13.383 L167.084,2.219 L161.327,3.615" id="Fill-20" sketch:type="MSShapeGroup"></path>
            <path d="M254.127,7.104 L250.812,14.256 C257.092,15.826 263.372,18.268 269.652,21.581 L273.49,14.256 L254.127,7.104" id="Fill-21" sketch:type="MSShapeGroup"></path>
            <path d="M248.371,22.453 L245.056,29.781 L264.418,37.455 L267.732,29.781 C263.896,27.338 257.616,24.896 248.371,22.453" id="Fill-22" sketch:type="MSShapeGroup"></path>
            <path d="M303.143,20.535 L295.816,17.221 C291.456,30.303 285.7,39.898 278.897,45.305 C272.617,50.537 262.5,53.504 249.417,54.549 L251.335,62.748 C266.337,61.178 277.501,56.818 285.175,50.189 C292.502,43.91 298.258,34.141 303.143,20.535" id="Fill-23" sketch:type="MSShapeGroup"></path>
            <path d="M300.701,13.383 L306.458,11.813 L303.143,1.696 L297.212,2.743 L300.701,13.383" id="Fill-24" sketch:type="MSShapeGroup"></path>
            <path d="M290.932,14.779 L296.863,13.383 L293.375,2.219 L287.619,3.615 L290.932,14.779" id="Fill-25" sketch:type="MSShapeGroup"></path>
            <path d="M371.348,9.895 L368.381,0.301 L362.626,1.696 L365.59,11.465 L371.348,9.895" id="Fill-26" sketch:type="MSShapeGroup"></path>
            <path d="M361.579,10.418 L358.788,0.824 L352.507,2.219 L355.299,10.941 L311.341,10.941 L311.341,18.617 L354.95,18.617 C353.38,31.699 348.147,41.817 338.902,48.271 L317.098,55.946 L321.458,63.62 C348.147,57.865 362.102,40.421 363.499,10.941 L359.311,10.941 L361.579,10.418 Z" id="Fill-27" sketch:type="MSShapeGroup"></path>
            <path d="M421.236,6.057 L412.863,6.057 L412.863,35.536 C412.863,43.91 410.072,49.665 404.315,52.98 L381.987,57.34 L384.43,65.19 L400.827,62.225 L410.944,57.34 C417.747,52.108 421.236,43.91 421.236,32.222 L421.236,6.057" id="Fill-28" sketch:type="MSShapeGroup"></path>
            <path d="M378.499,7.104 L386.348,7.104 L386.348,44.782 L378.499,44.782 L378.499,7.104 Z" id="Fill-29" sketch:type="MSShapeGroup"></path>
            <path d="M443.04,19.14 L449.319,3.091 L441.994,1.696 C439.028,13.907 433.794,22.978 426.468,30.303 L429.434,37.106 L435.714,30.827 L435.714,66.586 L443.04,66.586 L443.04,19.14" id="Fill-30" sketch:type="MSShapeGroup"></path>
            <path d="M458.042,1.696 C455.599,12.336 450.715,20.535 444.436,26.815 L448.796,33.269 L459.437,18.268 L462.228,18.268 L462.228,66.586 L469.554,66.586 L469.554,51.585 L490.835,51.585 L490.835,44.782 L469.554,44.782 L469.554,34.664 L490.835,34.664 L490.835,27.861 L469.554,27.861 L469.554,18.268 L492.406,18.268 L492.406,11.465 L462.751,11.465 L465.716,2.743 L458.042,1.696" id="Fill-31" sketch:type="MSShapeGroup"></path>
            <path d="M504.964,4.138 L504.964,28.384 L552.411,28.384 L552.411,4.138 L545.608,10.418 L545.608,22.106 L512.116,22.106 L512.116,10.418 L545.608,10.418 L552.411,4.138 L504.964,4.138" id="Fill-32" sketch:type="MSShapeGroup"></path>
            <path d="M518.918,63.272 L518.918,66.237 L525.199,66.237 L525.199,34.141 L498.685,34.141 L498.685,66.586 L504.964,66.586 L504.964,63.272 L518.918,63.272 L518.918,56.818 L504.964,56.818 L504.964,40.421 L518.918,40.421 L518.918,56.818" id="Fill-33" sketch:type="MSShapeGroup"></path>
            <path d="M551.888,63.272 L551.888,66.586 L558.691,66.586 L558.691,34.141 L530.606,34.141 L530.606,66.586 L537.41,66.586 L537.41,40.421 L551.888,40.421 L551.888,56.818 L537.41,56.818 L537.41,63.272 L551.888,63.272" id="Fill-34" sketch:type="MSShapeGroup"></path>
            <path d="M183.131,15.826 L183.131,23.5 L212.612,23.5 C207.205,33.269 197.61,42.864 183.481,52.631 L187.841,59.26 C197.61,52.98 205.286,45.827 211.215,38.502 L217.321,29.781 L217.321,64.144 L225.17,64.144 L225.17,23.5 L240.695,23.5 L240.695,15.826 L224.648,15.826 L224.648,4.662 L217.321,4.662 L217.321,15.826 L183.131,15.826" id="Fill-35" sketch:type="MSShapeGroup"></path>
        </g>
    </g>
</svg>