<?xml version="1.0" encoding="UTF-8" standalone="no"?>
<svg width="326px" height="355px" viewBox="0 0 326 355" version="1.1" xmlns="http://www.w3.org/2000/svg" xmlns:xlink="http://www.w3.org/1999/xlink" xmlns:sketch="http://www.bohemiancoding.com/sketch/ns">
    <title>Untitled</title>
    <description>Created with Sketch (http://www.bohemiancoding.com/sketch)</description>
    <defs></defs>
    <g id="Page-1" stroke="none" stroke-width="1" fill="none" fill-rule="evenodd" sketch:type="MSPage">
        <g id="Totoro" sketch:type="MSLayerGroup" transform="translate(0.000000, 1.000000)" fill="#FFFFFF">
            <path d="M148.095,216.023 L148.095,215.499 L147.572,215.499 L144.781,214.976 L148.095,216.023" id="Fill-1" sketch:type="MSShapeGroup"></path>
            <path d="M227.463,105.082 L227.463,104.209 L221.184,104.209 L219.788,105.082 L219.788,105.605 L223.103,105.082 L226.591,105.605 L227.463,105.082" id="Fill-37" sketch:type="MSShapeGroup"></path>
            <path d="M149.142,168.576 L148.619,168.053 L148.619,166.657 L148.095,165.087 L148.095,164.215 L147.223,162.296 L146.7,160.726 L146.177,160.377 L146.177,159.331 L145.653,158.807 L144.781,156.889 L144.258,156.54 L143.386,154.97 L142.339,154.098 L134.664,151.656 L128.209,152.179 L124.896,153.226 L122.454,154.97 L121.93,156.016 L121.582,156.54 L121.058,157.587 L120.535,157.935 L120.535,158.459 L120.012,158.807 L120.012,159.331 L119.663,159.854 L119.663,161.249 L119.14,162.296 L119.14,163.692 L118.616,164.738 L118.616,165.61 L118.093,165.61 L118.093,168.053 L117.569,169.448 L116.697,170.495 L116.697,171.018 L117.221,171.018 L118.093,172.414 L118.093,176.775 L118.616,176.775 L118.616,177.298 L119.14,178.17 L119.14,178.693 L120.012,180.089 L121.058,179.217 L121.058,178.693 L120.535,177.821 L120.535,175.903 L120.012,175.379 L120.012,168.576 L120.535,168.053 L120.535,167.181 L121.058,167.181 L121.058,163.168 L121.582,162.82 L121.582,161.249 L121.93,160.726 L121.93,159.331 L122.454,159.331 L123.5,157.587 L124.373,156.54 L132.222,153.575 L136.932,154.098 L139.897,155.494 L141.816,157.587 L142.339,157.587 L142.339,157.935 L143.734,160.726 L144.258,161.249 L144.258,161.948 L144.781,162.82 L145.305,163.168 L145.653,164.738 L145.653,165.087 L146.177,165.61 L146.177,167.181 L146.7,167.529 L146.7,169.448 L147.223,171.542 L147.223,173.809 L146.7,174.856 L145.653,176.251 L144.781,176.775 L142.339,178.693 L139.897,180.089 L134.141,182.531 L131.175,183.054 L125.942,182.181 L124.373,181.659 L124.023,181.659 L122.977,180.612 L121.582,179.74 L121.058,179.217 L120.012,180.089 L124.373,183.577 L127.338,184.45 L131.175,184.973 L138.501,183.054 L143.734,180.089 L147.223,177.298 L148.095,175.903 L148.619,175.379 L151.584,175.379 L151.933,174.332 L150.538,173.46 L149.666,172.414 L149.142,171.542 L149.142,168.576" id="Fill-38" sketch:type="MSShapeGroup"></path>
            <path d="M91.055,162.82 L91.055,163.168 L91.928,163.692 L92.451,162.82 L92.451,162.296 L92.975,161.249 L92.975,160.377 L93.498,159.331 L93.498,158.459 L94.021,156.889 L94.021,156.54 L93.498,156.016 L92.975,156.54 L92.975,156.889 L92.451,156.889 L92.451,158.459 L91.928,158.459 L91.928,160.377 L91.578,160.377 L91.578,160.726 L91.055,162.82" id="Fill-39" sketch:type="MSShapeGroup"></path>
            <path d="M95.939,160.726 L94.37,160.726 L94.021,161.948 L94.37,162.82 L95.416,162.82 L95.939,161.948 L95.939,160.726" id="Fill-40" sketch:type="MSShapeGroup"></path>
            <path d="M98.207,162.296 L96.811,162.296 L96.811,162.82 L97.858,163.692 L98.207,163.168 L98.207,162.296" id="Fill-41" sketch:type="MSShapeGroup"></path>
            <path d="M101.172,163.168 L100.3,163.168 L99.777,164.215 L100.3,164.738 L101.172,165.087 L101.696,164.738 L101.696,163.692 L101.172,163.168" id="Fill-42" sketch:type="MSShapeGroup"></path>
            <path d="M122.454,167.529 L122.454,172.414 L122.977,172.937 L124.373,174.856 L126.814,174.856 L127.861,174.332 L128.733,172.937 L128.733,166.657 L127.338,168.053 L127.861,168.576 L127.338,169.448 L126.814,169.099 L126.814,168.053 L127.338,168.053 L128.733,166.657 L128.209,165.087 L127.861,164.215 L126.814,163.168 L124.896,163.692 L122.977,165.61 L122.977,166.657 L122.454,167.529" id="Fill-43" sketch:type="MSShapeGroup"></path>
            <path d="M74.135,181.136 L74.135,180.612 L73.612,179.74 L72.216,178.693 L69.251,179.217 L68.727,180.089 L68.204,180.612 L68.204,181.659 L67.855,182.181 L69.774,183.054 L73.612,182.181 L74.135,181.136" id="Fill-44" sketch:type="MSShapeGroup"></path>
            <path d="M126.814,199.974 L126.291,201.544 L126.291,201.893 L127.861,203.463 L129.779,201.893 L129.257,201.544 L139.897,201.893 L139.897,202.416 L132.222,202.416 L129.779,201.893 L127.861,203.463 L134.141,204.335 L177.576,207.301 L180.541,208.173 L183.506,208.173 L193.1,210.091 L195.542,210.091 L196.065,209.743 L195.019,208.173 L187.867,206.777 L181.064,206.254 L176.703,205.382 L126.814,199.974" id="Fill-45" sketch:type="MSShapeGroup"></path>
            <path d="M117.221,209.743 L110.941,209.743 L111.29,210.091 L113.732,211.662 L124.023,212.534 L134.141,214.976 L134.141,214.104 L132.571,212.534 L127.861,212.185 L123.5,210.615 L117.221,209.743" id="Fill-46" sketch:type="MSShapeGroup"></path>
            <path d="M196.065,228.059 L196.065,227.186 L195.019,226.14 L192.576,224.744 L192.228,226.662 L192.228,227.186 L187.343,227.186 L179.494,224.744 L176.703,224.221 L151.933,216.895 L149.666,216.023 L153.503,216.546 L159.783,218.465 L162.05,218.465 L189.786,225.617 L192.228,226.662 L192.576,224.744 L177.226,220.907 L174.261,219.86 L126.291,208.696 L124.896,208.173 L120.535,207.301 L118.616,207.301 L115.302,206.254 L110.418,206.777 L109.894,207.301 L110.418,208.173 L111.813,207.301 L114.255,208.173 L120.535,209.219 L124.023,210.615 L135.013,212.185 L135.537,212.534 L139.374,213.58 L137.979,214.104 L136.932,215.499 L137.455,215.499 L180.541,227.186 L192.576,229.106 L196.065,228.059" id="Fill-47" sketch:type="MSShapeGroup"></path>
            <path d="M70.298,219.336 L70.298,218.465 L69.251,217.418 L66.809,217.941 L66.285,218.465 L66.285,218.813 L70.298,219.336" id="Fill-48" sketch:type="MSShapeGroup"></path>
            <path d="M124.023,225.268 L124.023,227.186 L125.942,228.581 L127.338,227.186 L125.942,226.14 L126.291,225.617 L132.222,227.535 L133.095,227.535 L155.945,237.303 L157.341,237.827 L164.144,241.664 L164.144,242.188 L163.621,242.188 L133.095,229.453 L131.175,229.106 L127.338,227.186 L125.942,228.581 L152.456,238.699 L152.98,239.222 L155.945,240.618 L158.388,241.141 L167.458,244.978 L169.027,245.502 L171.818,246.025 L172.342,245.502 L170.423,244.106 L168.504,242.188 L158.388,235.909 L155.422,234.861 L153.503,233.815 L128.733,224.744 L124.896,224.221 L124.023,225.268" id="Fill-49" sketch:type="MSShapeGroup"></path>
            <path d="M106.057,256.665 L105.533,256.143 L104.138,255.619 L103.091,255.619 L103.614,257.537 L106.58,259.108 L107.975,259.98 L109.371,260.504 L109.894,261.549 L109.894,261.899 L113.208,263.469 L115.302,264.865 L115.651,264.865 L116.697,266.26 L117.569,268.178 L117.569,268.876 L118.616,269.225 L120.012,270.62 L121.582,271.667 L122.454,273.586 L122.977,274.11 L123.5,274.11 L124.896,276.028 L129.257,280.389 L129.257,280.911 L129.779,281.261 L129.779,281.959 L130.651,282.831 L130.651,283.18 L131.699,284.226 L131.699,284.75 L132.222,285.273 L132.571,286.669 L133.095,287.192 L133.617,289.633 L133.617,290.506 L134.141,292.425 L134.141,293.471 L134.664,294.344 L135.537,295.39 L136.059,296.263 L136.059,296.786 L137.455,298.181 L137.455,298.705 L137.979,299.228 L137.979,300.623 L138.501,301.669 L139.025,303.066 L139.025,304.985 L143.386,309.869 L143.734,312.311 L143.734,321.032 L144.258,321.905 L144.258,322.952 L144.781,323.474 L144.781,326.265 L144.258,326.789 L144.258,327.835 L146.177,329.231 L146.177,330.278 L145.653,331.673 L145.653,333.591 L146.177,334.115 L147.223,332.196 L147.223,331.673 L147.572,331.15 L147.572,329.754 L146.7,328.706 L147.223,325.916 L146.7,325.916 L146.7,322.952 L146.177,321.556 L146.177,318.067 L145.653,314.752 L145.653,314.229 L146.177,313.182 L146.177,309.869 L141.292,304.985 C140.944,304.636 140.42,304.113 140.944,303.066 L140.42,300.623 L140.42,300.275 L139.897,299.228 L139.897,298.181 L139.374,297.832 L139.025,296.786 L137.455,295.39 L137.455,294.868 L136.932,294.344 L136.583,293.471 L136.059,291.552 L136.059,291.03 L135.537,289.983 L135.537,287.54 L135.013,286.669 L135.013,286.32 L134.664,286.32 L134.664,285.273 L134.141,284.75 L133.095,283.18 L132.571,282.308 L131.699,281.261 L131.699,280.911 L131.175,280.389 L131.175,279.865 L129.779,278.82 L129.779,278.47 L125.942,274.632 L125.418,273.586 L122.977,271.144 L121.93,269.748 L121.93,269.225 L121.582,268.876 L121.058,268.876 L120.012,267.829 L119.14,266.26 L119.14,265.387 L118.093,264.34 L117.569,263.469 L116.697,262.946 L112.336,261.549 L110.941,260.504 L111.29,260.504 L111.29,259.631 L109.894,258.585 L106.057,256.665" id="Fill-50" sketch:type="MSShapeGroup"></path>
            <path d="M62.448,295.39 C61.052,294.868 59.133,295.39 56.691,297.309 L55.645,298.181 L52.854,299.228 L50.412,301.669 L45.528,304.985 L45.005,306.031 L42.562,308.473 L42.213,309.346 L41.69,309.869 L41.69,310.915 L42.562,311.787 L50.412,311.264 L53.203,310.915 L54.772,310.915 L56.168,311.787 L57.564,313.182 L59.483,314.752 L60.529,316.149 L61.925,317.543 L62.448,318.59 L63.494,319.637 L63.843,320.509 L63.843,321.032 L64.89,321.905 L65.413,323.474 L65.937,323.998 L68.727,325.393 L69.774,324.346 L70.298,324.346 L70.298,317.195 L70.646,317.195 L70.646,315.277 L71.17,314.752 L71.17,313.706 L70.646,312.834 L70.646,310.915 L70.298,309.346 L70.298,307.95 L69.774,307.95 L69.774,306.555 L69.251,306.031 L68.204,306.555 L68.727,309.346 L68.727,312.311 L69.251,313.706 L69.251,316.149 L68.727,316.149 L68.727,321.556 L68.204,322.428 L67.332,322.952 L65.937,321.556 L65.937,321.032 L65.413,320.509 L65.413,319.637 L64.367,318.59 L62.971,316.671 L62.448,316.149 L61.925,315.277 L61.925,314.752 L61.052,313.706 L60.005,313.182 L59.483,312.834 L59.133,311.787 L56.691,310.391 L52.331,308.473 L49.366,309.346 L46.051,309.346 L46.051,307.95 L52.331,303.589 L53.727,301.669 L61.576,297.309 L62.971,297.832 L63.494,298.181 L64.367,298.705 L64.89,299.751 L65.413,300.275 L65.937,301.147 L66.285,301.669 L66.285,302.541 L66.809,302.541 L66.809,303.589 L67.332,304.113 L67.332,304.985 L67.855,304.985 L67.855,306.031 L68.204,306.555 L69.251,306.031 L69.251,304.636 L68.727,303.589 L68.204,302.194 L68.204,301.669 L67.855,300.275 L67.855,299.751 L67.332,299.228 L67.332,298.705 L66.809,298.181 L64.367,296.263 L62.448,295.39" id="Fill-51" sketch:type="MSShapeGroup"></path>
            <path d="M114.255,336.034 L114.255,335.511 L113.732,334.987 L113.732,334.639 L109.371,330.278 L107.452,329.754 L105.01,330.278 L100.649,332.544 L97.335,336.034 L97.335,336.906 L94.893,339.348 L92.975,340.917 L92.451,341.964 L91.928,342.314 L91.055,343.709 L91.055,344.755 L91.578,345.279 L96.811,346.151 L102.568,346.151 L102.568,344.755 L99.253,344.232 L94.37,344.232 L94.021,343.361 L94.021,342.314 L94.37,341.964 L95.416,341.267 L95.939,340.917 L98.73,338.475 L99.253,337.952 L101.172,335.511 L102.219,334.987 C103.614,333.591 105.01,332.544 106.58,332.196 L109.022,332.196 L111.29,334.639 L112.336,336.034 L112.336,336.906 L112.86,336.906 L112.86,337.952 L113.208,338.999 L113.208,339.871 L113.732,344.755 L113.732,345.627 L114.255,345.627 L114.255,348.593 L114.779,349.989 L114.779,351.559 L114.255,351.908 L112.336,351.908 L109.371,349.117 L109.371,348.593 L109.022,348.593 L107.452,347.198 L106.929,346.151 L106.58,346.151 L102.568,344.755 L102.568,346.674 L103.091,346.674 L105.533,347.547 L106.929,349.117 L107.975,350.511 L108.499,350.511 L109.371,351.908 L110.418,352.954 L113.732,354 L116.174,353.478 L116.697,352.431 L116.697,351.036 L116.174,348.593 L116.174,346.151 L115.651,343.709 L115.651,341.267 L115.302,338.999 L115.302,337.952 L114.779,337.603 L114.779,336.557 L114.255,336.034" id="Fill-53" sketch:type="MSShapeGroup"></path>
            <path d="M288.516,143.457 L293.749,146.772 L294.795,148.167 L296.714,149.738 L294.795,151.656 L294.795,152.528 L297.761,153.575 L298.633,154.447 L298.633,154.97 L299.68,156.016 L300.028,156.889 L301.075,157.587 L301.598,158.459 L302.47,159.854 L302.994,160.377 L304.041,161.948 L304.041,163.692 L303.517,163.692 L302.994,164.738 L302.994,165.087 L304.041,166.309 L304.913,167.529 L304.913,168.053 L307.355,170.495 L308.402,171.89 L308.402,172.414 L309.274,174.332 L309.274,176.251 L309.797,176.775 L310.32,177.821 L310.32,178.17 L310.669,178.17 L310.669,180.612 L311.716,182.531 L311.716,183.054 L312.239,184.1 L312.763,184.45 L312.763,185.496 L313.111,186.542 L314.158,187.938 L314.158,188.461 L314.681,189.333 L315.03,189.857 L315.03,191.252 L315.553,191.252 L315.553,192.299 L316.077,193.695 L316.077,194.741 L316.6,194.741 L316.6,195.614 L317.124,196.66 L317.472,197.183 L317.472,197.533 L317.996,198.056 L318.519,199.452 L319.042,200.497 L319.391,201.021 L319.914,201.893 L319.914,202.416 L320.438,203.812 L320.438,204.335 L320.96,206.254 L321.484,207.301 L321.484,208.173 L321.833,209.743 L321.833,210.615 L322.356,210.615 L322.356,212.185 L323.402,214.104 L323.402,216.546 L323.752,216.546 L323.752,217.418 L325.671,217.418 L325.671,216.546 L325.321,216.546 L325.321,214.976 L324.798,214.976 L324.798,214.104 L324.275,213.58 L324.275,211.138 L323.752,210.091 L323.402,209.743 L323.402,208.173 L322.879,206.254 L322.879,205.382 L322.356,204.335 L322.356,203.812 L321.833,203.463 L321.833,202.416 L321.484,201.893 L320.96,200.497 L320.96,199.974 L320.438,199.974 L320.438,199.102 L319.914,198.579 L319.914,197.533 L319.391,197.183 L318.519,194.218 L318.519,193.695 L317.996,193.171 L317.472,192.299 L317.472,191.776 L316.077,188.811 L316.077,187.938 L315.553,187.414 L315.03,186.019 L315.03,185.496 L314.681,184.973 L314.158,184.1 L314.158,183.054 L313.635,182.531 L312.763,180.612 L312.763,179.74 L312.239,179.74 L312.239,178.693 L311.716,177.298 L311.716,176.251 L311.192,175.903 L311.192,175.379 L310.669,174.332 L310.669,173.809 L310.32,172.937 L310.32,171.89 L309.797,171.542 L309.274,170.495 L308.402,169.099 L307.878,168.053 L306.483,166.657 L306.831,165.61 L306.831,164.215 L306.483,162.82 L305.959,161.948 L305.436,161.948 L305.436,160.726 L304.913,160.726 L304.389,159.854 L302.994,157.935 L302.47,156.889 L300.552,154.098 L300.028,153.575 L300.028,153.226 L299.156,151.656 L298.633,151.132 L298.633,150.086 L298.109,149.738 L297.237,148.167 L296.714,147.294 L294.272,144.853 L292.876,142.934 L292.354,142.934 L290.435,141.364 L287.993,142.411 L288.516,143.457" id="Fill-55" sketch:type="MSShapeGroup"></path>
            <path d="M126.814,79.44 L125.942,78.567 L125.942,78.044 L125.418,77.521 L124.373,76.997 L123.5,78.044 L124.373,79.091 L125.418,81.881 L125.418,83.8 L124.896,83.8 L124.896,84.324 L124.373,84.847 L123.5,86.242 L121.058,85.37 L120.535,84.324 L119.663,83.452 L119.663,82.928 L119.14,81.881 L119.14,81.359 L119.663,81.359 L119.663,79.963 L120.012,79.44 L120.535,78.567 L123.5,78.044 L124.373,76.997 L122.454,76.648 L120.535,76.648 L119.14,77.521 L118.616,78.044 L117.569,79.44 L117.569,83.452 L118.093,84.847 L118.616,85.37 L119.14,86.242 L120.535,86.766 L124.373,87.289 L124.896,86.242 L126.291,84.847 L126.814,83.452 L126.814,79.44" id="Fill-56" sketch:type="MSShapeGroup"></path>
            <path d="M263.746,1.641 L263.746,4.956 L264.269,6.351 L264.793,6.874 L265.316,7.921 L265.316,9.84 L265.665,11.235 L265.665,12.631 L266.188,13.678 L266.188,18.039 L266.711,18.039 L266.711,21.004 L267.235,21.353 L267.235,22.4 L267.758,22.923 L267.758,25.365 L268.107,25.365 L268.107,31.993 L268.63,32.517 L268.63,33.563 L269.154,34.958 L269.154,39.32 L269.677,40.366 L269.677,41.761 L270.026,42.285 L269.677,42.634 L270.026,43.68 L270.026,47.518 L270.549,47.518 L270.549,53.798 L271.072,57.635 L271.072,65.485 L270.549,66.357 L270.549,76.125 L270.026,76.648 L270.549,77.521 L270.549,79.44 L270.026,79.44 L270.026,82.928 L269.677,83.8 L269.677,84.847 L269.154,85.719 L269.154,87.289 L262.874,89.731 C261.304,90.08 259.908,90.603 259.036,91.127 L254.152,91.999 L249.792,96.011 L249.792,99.849 L249.268,100.371 L249.268,101.244 L248.745,104.733 L247.873,106.128 L247.35,107.524 L246.826,108.047 L246.303,109.094 L246.303,109.966 L245.954,110.49 L245.954,111.885 L246.826,112.408 L248.396,111.362 L248.745,111.013 L248.745,109.966 L251.187,110.49 L256.071,112.931 C260.432,115.373 263.397,116.768 264.269,116.768 L265.316,117.292 L269.677,118.687 L272.468,120.083 L275.433,122.176 L275.433,123.048 L272.991,123.048 L272.119,124.095 L279.271,127.933 L285.027,132.294 L285.027,132.817 L284.678,133.166 L280.666,132.294 L279.271,133.166 L281.19,134.212 C283.632,134.736 286.074,135.783 287.47,137.178 L292.354,141.888 L294.272,143.457 L295.667,145.376 L296.191,145.376 L295.667,143.806 L291.307,139.445 L290.958,137.178 L289.912,136.655 L289.04,134.736 L286.597,131.247 L280.317,126.014 L279.794,125.49 L280.666,124.444 L280.666,123.572 L277.875,121.653 L276.305,120.083 L272.991,117.815 L259.385,112.931 L254.675,109.966 L254.675,109.094 L257.989,109.443 L260.432,109.443 L260.432,108.571 L259.908,108.047 L254.152,107.001 L251.71,105.082 L252.233,104.733 L256.594,105.605 L257.989,105.605 L262.35,106.652 L263.746,106.652 L264.793,106.128 L264.269,105.082 L255.024,103.163 L252.233,102.29 L252.756,101.768 L253.628,101.244 L259.036,101.768 L267.235,104.209 L270.549,105.605 L271.596,105.082 L271.596,104.209 L271.072,103.686 L268.107,101.768 L263.746,100.721 L252.756,99.325 L252.233,98.802 L252.756,98.452 L255.024,98.452 L259.385,97.93 L266.711,97.93 L266.711,97.407 L262.35,96.36 L253.628,96.36 L253.105,96.011 L256.071,94.441 L261.304,92.522 L266.188,91.65 L269.677,89.731 L269.677,89.208 L271.596,86.242 L271.596,84.324 L272.119,83.8 L272.119,69.846 L272.468,68.799 L272.119,67.927 L272.468,65.485 L272.468,51.355 L272.119,51.355 L272.119,46.122 L271.596,42.285 L271.596,39.843 L271.072,37.401 L271.072,34.958 L270.549,34.958 L270.549,33.039 L270.026,31.993 L270.026,30.597 L269.677,29.202 L269.677,21.353 L269.154,21.004 L269.154,18.039 L268.63,16.992 L268.63,15.596 L268.107,15.073 L268.107,11.759 L267.758,11.235 L267.758,9.317 L267.235,8.793 L267.235,8.27 L266.711,7.398 L266.711,6.874 L264.269,0.072 L262.874,-0.277 L259.385,0.595 L258.513,1.641 L257.989,2.513 L257.466,3.037 L256.594,4.432 L254.675,8.793 L253.628,9.84 L252.756,11.759 L252.233,12.282 L249.268,16.12 L248.745,16.992 L247.35,18.562 L247.35,19.434 L246.303,20.481 L242.989,26.761 L242.465,28.156 L241.942,28.679 L241.593,29.725 L241.07,31.121 L240.023,31.993 L239.674,33.039 L239.151,33.563 L238.104,35.482 L238.104,36.005 L237.755,36.355 L236.709,39.32 L235.662,39.843 L235.662,40.366 L234.79,42.285 L234.267,42.634 L233.743,43.68 L233.743,44.204 L233.395,45.599 L233.395,46.122 L232.871,46.646 L232.871,47.518 L232.348,48.041 L232.348,49.437 L231.824,50.483 L231.824,51.879 L229.906,55.716 L229.906,56.24 L229.382,56.763 L227.463,59.729 L226.94,61.124 L226.591,61.648 L226.068,63.566 L224.673,65.485 L224.149,67.404 L223.626,67.927 L223.103,68.799 L222.23,70.369 L221.707,70.718 L221.707,71.242 L221.184,72.287 L221.184,73.159 L221.707,76.648 L225.021,81.009 L226.591,82.405 L226.591,82.928 L226.94,82.928 L227.463,84.324 L229.034,86.766 L229.034,89.208 L227.463,88.685 L225.545,86.766 L217.869,82.405 L215.427,84.847 L224.149,91.127 L226.591,94.092 L227.463,94.964 L228.51,95.488 L229.034,94.441 L226.068,91.65 L222.23,88.685 L219.788,86.242 L219.788,85.719 L219.265,85.37 L221.707,86.766 L222.754,87.813 L224.673,89.208 L225.021,89.731 L227.463,91.127 L228.51,91.999 L229.034,93.046 L229.034,94.441 L228.51,95.488 L229.034,96.011 L229.034,97.407 L228.51,97.407 L226.94,96.883 L218.393,90.603 L215.951,91.127 L217.346,92.522 L222.23,95.488 L222.754,96.36 L221.707,96.011 L209.147,94.092 L206.183,93.046 L203.392,92.522 L202.869,91.999 L194.67,91.999 L192.576,91.127 L192.576,89.731 L194.147,88.161 L199.031,86.766 L201.298,86.242 L201.822,85.37 L200.426,84.847 L199.031,84.847 L197.461,85.37 L197.461,85.719 L196.589,86.242 L193.623,86.766 L193.623,86.242 L194.147,86.242 L195.019,85.37 L197.461,85.37 L199.031,84.847 L202.869,82.928 L202.869,82.405 L201.298,82.405 L199.031,83.452 L194.147,83.8 L192.576,82.928 L191.704,84.847 L191.181,84.847 L191.704,85.719 L191.704,87.813 L191.181,88.685 L190.658,91.127 L188.739,91.999 L179.494,93.046 L179.145,91.127 L179.145,83.8 L179.494,83.452 L179.494,81.009 L180.018,79.963 L179.494,79.44 L179.494,78.044 L179.145,77.521 L178.622,76.648 L179.145,75.602 L175.657,73.683 L173.737,72.287 L173.388,71.764 L173.388,71.242 L172.865,70.369 L172.865,66.881 L173.388,65.485 L173.388,64.438 L173.737,64.089 L174.784,61.996 L174.784,61.648 L175.133,60.601 L175.133,60.077 L175.657,59.729 L176.18,58.682 L176.18,57.286 L176.703,56.763 L176.703,55.367 L177.576,51.879 L177.576,50.483 L178.099,49.088 L178.622,48.041 L178.622,47.518 L179.494,46.122 L179.494,45.076 L180.018,44.727 L180.018,43.68 L180.541,43.158 L180.541,42.634 L181.064,41.761 L181.587,41.239 L181.587,40.366 L181.937,39.843 L181.937,38.796 L182.459,38.273 L182.459,37.401 L182.982,36.877 L184.901,33.039 L185.948,30.075 L186.297,29.725 L186.82,28.679 L187.343,28.156 L188.739,25.365 L190.658,23.272 L193.1,19.957 L193.623,19.085 L194.67,17.515 L198.508,13.678 L199.031,14.201 L199.38,15.073 L199.38,16.12 L199.903,16.643 L199.903,18.562 L200.426,19.957 L200.426,20.481 L200.95,21.876 L200.95,26.237 L201.298,27.283 L201.298,30.075 L201.822,31.121 L201.822,37.924 L202.345,38.796 L202.345,39.32 L202.869,39.843 L202.869,42.285 L203.392,43.158 L203.392,49.437 L203.741,50.483 L203.741,56.24 L203.392,56.763 L203.392,61.996 L203.741,62.52 L203.741,64.962 L204.264,66.009 L204.264,66.881 L204.787,67.404 L204.787,71.242 L203.392,74.206 L194.67,78.567 L193.1,79.963 L192.576,81.009 L193.1,81.359 L193.1,82.405 L194.147,82.405 L198.508,81.359 L200.426,81.359 L202.869,81.009 L201.298,79.963 L197.984,79.963 L197.984,79.44 L200.95,78.044 L205.311,75.078 L205.659,74.206 L206.706,68.799 L206.706,67.404 L206.183,66.881 L206.183,61.124 L205.659,60.601 L205.659,51.355 L205.311,50.483 L205.311,46.122 L205.659,46.122 L205.311,45.599 L205.311,39.32 L204.787,38.273 L204.787,34.958 L204.264,34.086 L204.264,33.563 L203.741,31.993 L203.741,30.075 L203.392,29.202 L203.392,27.633 L202.869,26.761 L202.869,21.876 L202.345,20.481 L202.345,19.085 L201.822,18.039 L201.822,16.12 L200.95,14.201 L200.95,13.678 L200.426,12.631 L200.426,12.282 L199.903,11.235 L197.461,11.235 L194.147,14.724 L193.623,14.724 L193.623,15.596 L192.228,16.992 L190.658,19.957 L187.867,22.923 L186.297,25.714 L184.378,28.156 L183.854,28.679 L183.854,29.202 L183.506,30.075 L182.982,31.993 L182.459,32.517 L182.459,33.039 L181.587,34.436 L181.587,36.005 L180.541,36.877 L180.541,37.401 L180.018,38.273 L179.494,38.796 L179.494,39.843 L179.145,40.715 L179.145,41.761 L178.099,43.158 L178.099,43.68 L177.576,44.727 L177.576,45.076 L177.226,46.122 L176.703,46.646 L176.703,47.518 L176.18,49.088 L175.133,49.96 L175.133,51.007 L174.784,51.879 L174.784,52.402 L174.261,52.926 L174.261,55.367 L173.737,56.24 L173.737,57.635 L173.388,58.159 L173.388,60.077 L172.865,61.648 L171.818,63.566 L171.818,64.089 L170.772,66.009 L170.772,66.881 L170.423,68.45 L170.423,69.846 L170.772,70.718 L171.295,71.242 L171.295,72.287 L172.342,73.159 L178.099,76.997 L177.226,79.44 L170.423,76.125 L166.411,75.078 C166.063,74.73 165.539,75.078 165.016,75.602 L166.935,76.997 C168.504,76.997 169.899,77.521 170.772,78.567 L169.376,79.44 L168.504,81.009 L171.818,81.009 L174.784,81.359 L177.226,82.405 L176.703,83.452 L172.865,83.8 L170.772,84.324 L170.772,84.847 L173.388,84.847 L174.784,84.324 L176.703,84.847 L176.703,86.242 L176.18,87.289 L171.295,87.813 L170.772,88.685 L171.295,89.208 L173.388,88.685 L175.133,87.813 L176.703,88.161 L176.703,89.731 L175.133,90.603 L175.657,91.999 L175.657,93.046 L174.261,93.569 L173.737,92.522 L175.657,91.999 L175.133,90.603 L172.342,91.999 C169.899,92.522 169.027,93.046 169.027,93.569 L166.063,94.964 L165.539,95.488 L164.667,94.964 L165.016,93.569 L165.016,91.999 L164.667,91.127 L159.26,89.731 L159.26,88.161 L157.341,84.324 L153.503,79.44 L151.061,78.044 L149.666,75.078 L147.223,72.637 L147.223,71.764 L146.7,71.242 L146.177,69.846 L143.386,66.009 L140.42,63.566 L134.141,59.729 L134.141,58.682 L133.617,57.635 L133.095,57.286 L133.095,52.402 L132.571,51.879 L132.571,51.355 L132.222,50.483 L132.222,49.96 L131.699,48.565 L131.175,48.565 L131.175,47.518 L130.304,46.122 L129.779,45.076 L129.779,44.727 L126.814,38.273 L126.814,37.401 L126.291,36.877 L125.942,35.482 L125.418,34.958 L124.023,34.958 L122.977,35.482 L122.977,36.355 L122.454,36.877 L121.93,37.924 L121.93,39.32 L121.582,40.366 L121.582,42.285 L121.058,43.68 L121.058,47.518 L120.012,48.565 L119.14,46.995 L117.221,43.158 L117.221,42.634 L116.697,41.761 L116.697,41.239 L116.174,40.366 L114.779,38.796 L113.732,38.796 L113.208,39.843 L113.208,40.715 L112.86,41.761 L112.86,43.158 L112.336,44.204 L112.336,48.565 L111.813,49.96 L111.813,52.926 L112.336,53.449 L111.813,53.449 L111.813,56.24 L112.336,56.24 L112.336,59.205 L112.86,59.729 L112.86,60.601 L113.208,61.648 L113.208,71.242 L110.418,76.997 L110.418,79.44 L109.894,79.963 L109.894,82.928 L110.941,82.405 L111.29,81.359 L111.813,81.009 L112.336,79.963 L112.86,80.486 L112.86,81.009 L111.813,82.928 L112.336,83.8 L112.86,84.324 L113.208,84.324 L113.208,84.847 L112.86,84.847 L112.336,85.719 L111.29,86.242 L110.941,85.719 L110.941,82.405 L109.894,82.928 L109.371,82.928 L109.894,84.324 L109.894,86.766 L110.418,87.813 L110.418,90.603 L110.941,91.999 L110.941,96.011 L110.418,96.011 L110.418,98.802 L109.894,99.325 L109.894,102.29 L110.418,103.163 L110.418,104.733 L110.941,105.605 L111.29,108.047 L111.813,109.094 L112.86,111.885 L113.732,112.931 L114.779,114.85 L112.86,116.768 L111.813,118.164 L110.418,118.164 L109.022,119.211 L108.499,118.164 L108.499,116.768 L107.452,116.245 L106.58,117.815 L105.533,119.734 L105.533,120.083 L102.568,123.048 L101.696,126.014 L100.649,126.886 L99.777,128.456 L98.73,130.375 L98.207,130.723 L98.207,131.77 L97.858,132.294 L97.335,133.166 L96.289,134.736 L96.289,135.084 L95.939,135.783 L94.37,138.573 L93.498,139.445 L92.451,141.015 L92.451,141.364 L91.578,143.457 L91.055,143.806 L90.532,144.853 L90.009,145.376 L89.66,146.772 L89.137,147.819 L89.137,148.865 L88.614,149.738 L88.614,150.61 L88.09,151.656 L88.09,152.179 L87.567,153.226 L87.567,154.447 L87.217,155.494 L87.217,156.54 L86.695,158.459 L86.695,159.331 L86.171,160.377 L86.171,161.948 L85.647,162.296 L83.729,165.087 L82.334,166.309 L70.646,169.448 L64.89,172.937 L64.89,173.809 L64.367,174.856 L63.843,175.379 L63.843,179.74 L64.367,180.612 L64.367,182.181 L63.494,183.577 L61.925,187.938 L61.925,188.461 L60.529,190.38 L57.564,190.38 L57.215,189.857 L55.645,189.333 L54.772,189.333 L53.203,189.857 L53.727,190.903 L54.25,191.252 L58.087,192.299 L60.529,193.171 L61.052,194.218 L61.052,198.056 L60.529,198.579 L55.122,199.452 L45.005,203.463 L45.005,204.335 L45.528,205.382 L60.005,200.497 L61.052,201.544 L60.529,202.416 L60.529,203.463 L60.005,203.812 L60.005,204.335 L59.483,205.382 L59.483,206.254 L59.133,206.777 L59.133,207.824 L56.691,209.219 L55.122,210.615 L59.133,210.091 L59.483,210.615 L60.005,211.662 L60.529,213.057 L60.529,213.58 L61.052,214.452 L61.052,214.976 L61.576,216.546 L61.576,216.895 L61.925,217.941 L61.925,218.465 L62.448,218.813 L62.971,219.86 L62.448,220.907 L58.087,221.779 L55.645,222.826 L54.772,223.698 L54.772,226.14 L55.122,226.662 L54.772,227.186 L49.889,234.338 L47.447,235.909 L45.005,238.176 L43.609,239.222 L43.609,240.618 L43.086,241.141 L40.644,243.06 L39.772,244.455 L32.968,251.782 L28.607,255.271 L26.166,256.665 L23.724,257.537 L24.77,259.631 L19.885,264.34 L18.839,265.911 L18.839,266.26 L19.363,267.829 L18.839,268.178 L16.921,270.62 L16.048,271.667 L15.001,273.586 L15.001,276.028 L13.606,277.598 L13.082,278.82 L12.21,279.865 L12.21,280.911 L11.688,281.959 L11.688,282.831 L8.199,286.32 L8.199,287.192 L5.408,291.03 L5.408,292.425 L4.885,292.949 L4.885,293.994 L4.361,295.913 L4.361,299.228 L2.966,301.147 L2.442,301.669 L1.919,302.541 L1.57,304.113 L1.047,304.636 L0.524,306.031 L1.047,306.031 L1.047,306.903 L1.57,307.95 L1.57,309.346 L1.047,310.391 L1.047,312.311 L0.524,313.182 L0.524,313.706 L0,314.752 L0,315.624 L0.524,316.149 L1.57,315.277 L1.57,313.182 L1.919,312.834 L1.919,311.787 L2.442,310.915 L2.442,307.95 L2.966,306.903 L3.489,306.555 L4.361,304.985 L4.361,304.636 L3.838,303.589 L4.361,303.066 L6.28,300.275 L8.199,298.181 L7.327,296.263 L7.85,296.263 L15.525,292.949 L18.49,292.949 L21.804,295.39 L22.851,296.263 L22.851,297.309 L23.2,297.832 L25.642,299.751 L27.562,299.751 L29.131,297.832 L29.131,296.786 L27.562,297.309 L27.212,297.832 L25.642,296.263 L25.642,295.913 L24.77,294.344 L23.724,293.471 L22.851,291.552 L22.328,291.03 L18.839,289.983 L14.129,291.03 L12.21,292.425 L8.722,293.994 L7.85,293.471 L7.85,291.902 L8.199,291.03 L8.722,291.03 L8.722,289.983 L9.246,288.587 L10.641,287.192 L11.164,286.32 L12.21,285.273 L13.606,284.75 L15.525,282.831 L17.443,281.261 C18.839,280.389 19.363,279.865 19.885,279.865 L25.293,276.901 L26.166,277.948 L26.166,279.342 L26.689,281.261 L26.689,283.18 L26.166,285.622 L26.689,286.32 L26.689,288.064 L27.212,288.064 L27.212,293.994 L27.562,295.913 L27.562,297.309 L29.131,296.786 L29.48,296.263 L30.003,295.39 L30.003,291.03 L29.48,289.983 L29.48,287.54 L29.131,287.54 L29.131,277.948 L28.607,277.598 L28.607,276.551 L27.562,274.982 L25.642,274.632 L23.724,275.504 L23.2,276.028 L16.048,279.865 L16.921,276.901 L16.921,276.028 L17.443,274.982 L21.282,272.19 L21.282,271.144 L19.885,271.144 L18.839,271.667 L19.363,270.62 L21.804,268.178 L26.166,264.865 L26.689,262.946 L24.77,262.946 L24.77,262.422 L29.131,258.585 L29.48,257.189 L32.445,254.224 L38.725,249.864 L42.213,246.548 L44.655,244.455 L48.493,242.188 L60.529,237.303 L66.809,235.909 L67.332,237.303 L68.204,237.827 L75.007,239.744 C77.449,238.699 78.845,238.699 79.892,239.744 L83.729,241.664 L86.695,242.536 L89.137,244.455 L91.578,246.025 L95.416,249.339 L97.858,250.91 L100.3,251.782 L104.661,254.747 L106.057,254.224 L105.01,252.827 L102.219,250.91 L97.858,248.817 L87.217,240.618 L78.496,237.827 L75.531,237.827 C74.659,236.781 73.612,236.256 72.565,236.256 L69.774,235.384 L64.89,234.861 L56.168,236.256 C53.727,237.303 51.808,238.176 50.761,238.699 L48.493,240.269 L46.051,240.618 L46.051,239.744 L50.412,235.909 L50.761,235.909 L52.854,234.338 L53.203,233.466 L53.203,232.942 L54.772,231.547 L56.168,229.106 L58.61,227.186 L59.133,226.14 L60.005,224.744 L60.529,223.698 L64.89,222.301 L65.413,221.779 L64.367,220.383 L64.367,219.336 L64.89,218.465 L64.367,216.023 L63.843,215.499 L61.925,211.662 L61.925,209.219 L61.576,207.824 L61.576,205.382 L61.925,204.335 L61.925,203.812 L62.448,202.94 L62.448,201.893 L62.971,201.544 L62.971,199.102 L63.494,197.183 L63.494,194.218 L62.971,193.171 L62.971,192.299 L63.494,191.252 L63.494,189.857 L63.843,188.811 L63.843,188.461 L64.367,187.414 L64.89,186.892 L64.89,186.019 L65.413,184.973 L67.332,183.054 L66.285,180.089 L65.937,176.775 L67.855,173.46 L69.774,172.937 L72.565,174.332 C74.135,174.332 75.531,175.379 76.926,176.775 L76.926,177.298 L78.496,180.089 L78.496,182.181 L78.845,183.054 L80.415,182.181 L80.415,178.693 L79.368,176.775 L75.007,172.937 L72.216,171.542 L73.612,170.495 L75.007,169.971 L76.054,169.971 L76.054,171.018 L77.973,171.018 L80.415,170.495 L80.937,171.018 L80.937,171.89 L86.695,171.89 L87.217,173.46 L86.171,174.332 L89.66,175.903 L89.66,176.251 L89.137,176.775 L89.137,177.298 C89.66,177.821 90.009,178.17 91.578,178.17 L91.928,177.298 L90.532,175.903 L90.532,174.856 L91.055,174.856 L90.532,174.332 L88.614,171.542 L87.567,170.495 L85.647,169.971 L84.253,168.576 L84.253,167.181 L87.567,164.215 L88.614,164.738 L89.66,164.738 L90.009,164.215 L90.009,161.948 L90.532,161.948 L90.532,159.331 L91.055,158.459 L91.055,157.935 L91.578,156.889 L91.578,154.97 L90.009,156.54 L90.009,157.587 L89.66,157.935 L89.137,160.377 L89.137,161.249 L88.614,160.726 L89.137,159.854 L89.137,157.935 L89.66,155.494 L89.66,154.098 L90.009,152.528 L90.009,152.179 L90.532,151.132 L90.532,150.086 L91.055,149.738 L91.055,148.865 L91.928,146.772 L92.451,146.248 L95.416,140.492 L95.939,140.143 L96.811,138.05 L97.335,136.655 L98.207,135.084 L98.207,134.212 L98.73,134.212 L99.777,131.77 L101.172,129.328 L101.696,128.805 L102.568,126.886 L103.614,125.49 L104.661,124.444 L104.661,126.014 L105.01,126.886 L106.057,125.49 L106.929,123.048 L107.452,122.525 L107.452,121.653 L109.022,121.653 L109.371,122.525 L110.941,121.653 L113.732,118.687 L113.732,118.164 L115.651,116.245 L119.663,116.768 L120.535,116.245 L117.569,115.373 L116.697,113.454 L115.651,112.408 L113.732,108.571 L113.208,108.047 L113.208,107.001 L112.86,106.652 L112.86,105.605 L112.336,104.733 L112.336,89.731 L111.813,89.731 L111.813,88.161 L112.336,87.813 L113.732,87.289 L114.779,86.242 L114.779,83.452 L115.302,83.452 L114.779,81.881 L114.779,79.963 L113.732,79.091 L112.336,78.567 L112.336,76.997 L114.779,72.637 L115.651,71.764 L115.651,71.242 L116.174,70.718 L115.651,69.846 L115.651,69.323 L115.302,68.799 L115.302,60.601 L114.779,60.077 L114.779,58.682 L114.255,58.159 L114.255,57.286 L113.732,55.716 L113.732,48.565 L114.255,48.041 L114.255,45.599 L114.779,44.727 L114.779,43.158 L115.651,44.204 L115.651,44.727 L116.174,45.076 L116.174,45.599 L116.697,46.122 L116.697,46.646 L117.221,46.995 L117.221,47.518 L117.569,48.041 L118.616,51.007 L119.14,51.879 L119.663,52.402 L119.663,59.205 L119.14,59.205 L119.14,67.927 L119.663,67.927 L120.535,66.881 L121.058,66.881 L121.058,58.682 L121.582,57.286 L121.582,54.321 L121.93,51.007 L121.93,49.088 L122.454,48.565 L122.454,47.518 L122.977,47.518 L122.977,41.761 L123.5,41.761 L123.5,40.715 L124.023,40.366 L124.023,39.32 L124.373,39.32 L125.418,40.366 L125.942,41.239 L125.942,41.761 L126.291,42.285 L126.814,43.158 L126.814,43.68 L127.338,44.204 L127.338,44.727 L127.861,46.122 L127.861,46.646 L128.209,46.646 L128.209,47.518 L128.733,48.565 L128.733,49.088 L129.257,49.088 L129.257,49.96 L130.304,51.007 L130.304,51.879 L130.651,51.879 L130.651,55.367 L131.175,57.286 L131.175,58.159 L131.699,59.729 L131.699,60.077 L132.571,60.601 L133.617,61.996 L140.42,66.009 L143.386,68.799 L143.386,69.846 L143.734,70.718 L144.258,70.718 L144.258,71.764 L144.781,72.287 L144.781,72.637 L146.177,74.206 L146.7,75.078 L147.223,75.602 L147.572,76.648 L148.095,76.997 L148.095,77.521 L149.142,79.091 L150.538,80.486 L151.933,81.359 L152.98,81.881 L153.503,82.928 L154.375,83.8 L155.422,86.242 L155.945,86.242 L155.945,87.289 L156.294,87.813 L156.817,89.208 L156.817,89.731 L157.689,90.603 L157.689,91.127 L161.178,92.522 L161.702,94.092 L161.178,94.441 L160.655,95.488 L144.258,101.768 C142.862,102.29 141.292,102.814 140.944,103.163 L129.779,108.047 L124.896,111.362 L124.023,112.408 L123.5,112.408 L122.977,113.454 L121.93,114.327 L121.582,115.373 L120.535,116.245 L119.663,116.768 L119.663,117.292 L120.012,118.164 L121.93,117.292 L125.942,113.454 L132.222,108.571 L132.571,109.094 L135.013,108.571 L145.653,103.163 L174.784,94.964 L189.786,94.092 L212.985,96.36 L214.38,96.36 L216.299,96.883 L217.346,97.93 L216.823,98.802 L218.742,100.371 L216.299,101.244 L216.299,102.29 L221.184,102.29 L224.149,102.814 L226.94,102.814 L226.591,100.721 L226.591,100.371 L227.463,99.849 L227.463,100.721 L226.591,100.721 L226.94,102.814 L227.987,103.686 L229.382,104.209 L229.906,103.163 L229.906,100.721 L230.429,99.849 L230.429,97.93 L230.952,96.883 L230.952,91.999 L231.301,90.603 L231.301,87.289 L230.429,85.37 L229.906,84.847 L229.034,82.928 L228.51,81.009 L227.463,79.44 L225.545,78.044 L224.149,75.602 L224.149,74.73 L223.626,73.683 L224.149,73.159 L224.149,72.637 L224.673,71.764 L225.021,71.242 L225.021,70.369 L227.463,66.881 L227.463,66.009 L227.987,64.962 L228.51,64.438 L229.382,63.043 L229.906,61.648 L229.906,60.077 L230.952,58.159 L231.301,56.763 L231.824,56.24 L233.395,53.449 L233.395,51.355 L234.267,49.437 L234.267,49.088 L234.79,48.041 L234.79,46.995 L235.313,46.646 L235.662,45.599 L235.662,44.727 L236.185,43.68 L236.185,43.158 L237.232,41.239 L238.104,40.366 L238.104,39.32 L239.674,37.401 L240.023,36.355 L240.023,35.482 L241.07,34.436 L242.465,31.121 L244.035,29.725 L244.384,28.679 L244.384,28.156 L244.907,27.633 L245.431,26.761 L245.954,25.365 L246.826,23.272 L247.35,22.923 L251.187,16.992 L252.756,14.201 L254.152,12.631 L255.024,10.712 L256.071,9.317 L256.594,8.27 L257.117,7.921 L258.513,4.956 L259.385,3.909 L260.955,1.641 L262.35,1.118 L263.746,1.641" id="Fill-58" sketch:type="MSShapeGroup"></path>
            <path d="M124.023,82.405 L123.5,80.486 L121.582,79.963 L121.058,80.486 L120.535,81.359 L121.058,82.928 L121.582,83.8 L121.93,83.8 L123.5,83.452 L124.023,83.452 L124.023,82.405" id="Fill-60" sketch:type="MSShapeGroup"></path>
        </g>
    </g>
</svg>