<?xml version="1.0" encoding="UTF-8" standalone="no"?>
<svg width="70px" height="100px" viewBox="0 0 70 100" version="1.1" xmlns="http://www.w3.org/2000/svg" xmlns:xlink="http://www.w3.org/1999/xlink" xmlns:sketch="http://www.bohemiancoding.com/sketch/ns">
    <title>totoro</title>
    <description>Created with Sketch (http://www.bohemiancoding.com/sketch)</description>
    <defs></defs>
    <g id="Page-1" stroke="none" stroke-width="1" fill="none" fill-rule="evenodd" sketch:type="MSPage">
        <ellipse id="Oval" fill="#000000" sketch:type="MSShapeGroup" cx="45.057" cy="27.086" rx="1.057" ry="1.086"></ellipse>
        <ellipse id="Oval" fill="#000000" sketch:type="MSShapeGroup" cx="24.059" cy="27.086" rx="1.059" ry="1.086"></ellipse>
        <path d="M55.019,29.055 C53.346,25.04 48.996,18.68 48.996,18.68 L48.996,8.641 C48.996,6.633 47.992,-2.402 43.641,0.609 C39.291,3.622 41.969,16.673 41.969,16.673 C41.969,16.673 39.609,15.818 35.275,15.818 C35.181,15.818 35.092,15.821 35,15.823 C34.908,15.822 34.82,15.818 34.725,15.818 C30.393,15.818 28.033,16.673 28.033,16.673 C28.033,16.673 30.71,3.622 26.36,0.609 C22.01,-2.402 21.006,6.633 21.006,8.641 L21.006,18.68 C21.006,18.68 16.655,25.04 14.982,29.055 C13.31,33.072 4.851,48.131 3.847,51.309 C2.843,54.488 -1.842,65.198 1.169,72.894 C2.61,76.575 4.377,77.058 5.061,76.38 C6.08,75.368 5.8,68.184 6.351,81.857 C6.601,88.072 9.607,92.954 10.967,94.312 C15.317,98.662 17.664,100 17.664,100 L33.606,100 C34.401,100 34.981,98.5 34.981,98.5 C35.021,98.5 35.602,100 36.396,100 L52.339,100 C52.339,100 54.685,98.661 59.035,94.312 C60.395,92.954 63.401,88.072 63.651,81.857 C64.202,68.184 63.921,75.368 64.941,76.38 C65.625,77.058 67.392,76.574 68.833,72.894 C71.845,65.197 67.159,54.487 66.155,51.309 C65.151,48.13 56.692,33.071 55.019,29.055 Z M45.525,24.1 C47.328,24.1 48.788,25.303 48.788,27.313 C48.788,29.323 47.755,30.525 45.952,30.525 C44.15,30.525 42.689,29.323 42.689,27.313 C42.689,25.303 43.724,24.1 45.525,24.1 L45.525,24.1 Z M34.936,25.61 C36.773,25.61 39.309,26.338 39.309,27.239 C39.309,28.138 38.223,28.867 34.936,28.867 C31.651,28.867 30.564,28.138 30.564,27.239 C30.564,26.337 32.907,25.61 34.936,25.61 L34.936,25.61 Z M23.689,24.1 C25.492,24.1 26.525,25.303 26.525,27.313 C26.525,29.323 25.065,30.525 23.262,30.525 C21.46,30.525 20.426,29.323 20.426,27.313 C20.426,25.303 21.888,24.1 23.689,24.1 L23.689,24.1 Z M35.29,97.672 C14.77,95.488 8.735,79.561 8.735,68.758 C8.735,61.8170156 10.5351756,55.4471736 13.9695581,50.4636924 C18.4351143,43.9839205 25.6635428,39.848 35.29,39.848 C51.646,39.848 61.418,52.792 61.418,68.758 C61.418,77.816 54.482,96.582 35.29,97.672 Z" id="Shape" fill="#000000" sketch:type="MSShapeGroup"></path>
    </g>
</svg>