<?xml version="1.0" encoding="UTF-8" standalone="no"?>
<svg width="55px" height="16px" viewBox="0 0 55 16" version="1.1" xmlns="http://www.w3.org/2000/svg" xmlns:xlink="http://www.w3.org/1999/xlink" xmlns:sketch="http://www.bohemiancoding.com/sketch/ns">
    <title>upfront-logo-small</title>
    <description>Created with Sketch (http://www.bohemiancoding.com/sketch)</description>
    <defs></defs>
    <g id="Page-1" stroke="none" stroke-width="1" fill="none" fill-rule="evenodd" sketch:type="MSPage">
        <path d="M11.2933612,15.9999996 C11.2933612,15.9999996 11.4997104,14.5297256 11.5159889,14.3500255 L11.8741148,11.8995684 C12.4764174,12.3243144 13.0624417,12.7327238 14.1205409,12.7327238 C17.1483327,12.7327238 18.0273691,9.38376564 18.0273691,7.12934515 C18.0273691,4.76056991 17.050662,3.86206896 15.6507153,3.86206896 C14.6251728,3.86206896 13.6159089,4.45017867 12.6554804,5.34867964 L12.6066451,5.33234325 L12.8019865,4.02543278 L10.5915892,4.02543278 C10.5915892,4.02543278 10.3439404,5.70808002 10.3113835,5.90411658 L9.30211957,13.2064789 L8.83004467,15.9346545 L8.86260155,16 L11.2933612,15.9999996 L11.2933612,15.9999996 Z M12.5750522,7.12643678 C13.1536801,6.59678162 13.9734027,5.88505747 14.6163224,5.88505747 C15.2270963,5.88505747 15.4521182,6.53057471 15.4521182,7.50712644 C15.4521182,8.96367818 14.9699284,10.8505747 13.6680159,10.8505747 C13.073315,10.8505747 12.5429062,10.5526436 12.1410813,10.2050575 L12.5750522,7.12643678 L12.5750522,7.12643678 Z M20.3464829,16 L21.7083297,5.65474973 L24.339482,5.65474973 L24.5668656,4.020429 L22.0656465,4.020429 C21.9357131,4.020429 21.9357131,3.97139938 21.9519547,3.85699693 L22.0818882,2.89274769 C22.1793383,2.17364658 22.5204137,1.7977528 23.2188061,1.7977528 C23.9171983,1.7977528 24.599349,2.2226762 24.8592159,2.38610827 L25.7525083,0.866189982 C25.1515662,0.392236982 23.982165,0 22.9589391,0 C21.1885958,0 19.9867114,0.784473945 19.6781195,2.97446373 L19.5319443,4.020429 C19.5319443,4.020429 19.3045607,5.72012256 19.2883191,5.8181818 L17.8428094,16 L20.3464829,16 L20.3464829,16 Z M26.7285185,12.5057471 C26.7285185,12.5057471 26.8711593,11.1058291 26.9036297,10.8453793 L27.4718624,6.71073869 C27.9264484,6.23867342 28.4297402,5.86427684 28.7382091,5.86427684 C28.8680909,5.86427684 28.9005614,5.91311116 28.9167965,6.05961418 L28.9655023,6.90607605 L30.8650226,6.97118849 L31.270903,4.00857198 C30.9949044,3.92718142 30.3779661,3.86206896 30.0207914,3.86206896 C28.9817374,3.86206896 28.0725654,4.61086215 27.4393918,5.52243647 L27.3906862,5.48988024 L27.6017441,4.02485009 L25.4315736,4.02485009 C25.4315736,4.02485009 25.198932,5.71777382 25.1826967,5.89683305 L24.5008177,10.8616575 C24.4683472,11.1058291 24.2809365,12.4779365 24.2809365,12.4779365 L26.7285185,12.5057471 L26.7285185,12.5057471 Z M34.7546956,12.6896551 C37.9559241,12.6896551 39.5484951,10.4786944 39.5484951,7.30856671 C39.5484951,5.42274718 38.6476468,3.86206896 35.9611888,3.86206896 C32.8243065,3.86206896 31.0869564,6.05677273 31.0869564,9.19438618 C31.0869564,11.2915476 32.2291033,12.6896551 34.7546956,12.6896551 L34.7546956,12.6896551 Z M33.6622073,9.25670491 C33.6622073,6.57387669 34.7188303,5.70114942 35.8079645,5.70114942 C36.6695186,5.70114942 37.1571906,6.20215953 37.1571906,7.41428075 C37.1571906,10.0809475 36.1818464,11.0344827 35.0602006,11.0344827 C34.1823909,11.0344827 33.6622073,10.5011495 33.6622073,9.25670491 L33.6622073,9.25670491 Z M54.773537,5.84787589 L55,4.21104104 L52.6122399,4.21104104 L52.6173481,4.17153464 L53.0292373,1.28735633 L50.4920004,1.670802 L50.1295379,4.17153464 L50.1244297,4.21104104 L48.8188673,4.21104104 L48.6012945,5.84787589 L49.912782,5.84787589 L49.89888,5.95539058 L49.3391972,9.90404309 C48.8857345,10.2693907 48.2965325,10.6582658 47.7963666,10.6582658 C47.527339,10.6582658 47.3842448,10.569764 47.3228712,10.3758124 L47.7971974,6.96270218 C47.8446494,6.65859845 47.8604667,6.33848927 47.8604667,6.08240191 C47.8130147,4.80196516 47.19614,4.17775224 45.9940248,4.17775224 C44.7602753,4.17775224 43.9061408,4.89799791 43.0203719,5.66625996 L42.9729199,5.65025451 L43.1469102,4.33780684 L40.9850709,4.33780676 C40.9850709,4.33780676 40.790132,6.00237462 40.7584975,6.17843467 L40.0941708,11.0600998 C40.0625361,11.3001816 39.9163881,12.5947375 39.9163881,12.5947375 L42.2645613,12.644654 C42.2645613,12.644654 42.4193143,11.3161871 42.4509488,11.0600998 L42.9412854,7.3948496 C43.4790736,6.91468582 44.3173907,6.24245651 44.9975348,6.24245651 C45.4720539,6.24245651 45.5036885,6.67460391 45.4087847,7.34683322 L45.0749955,9.76938545 C45.0749955,9.76938545 44.997535,10.4445682 44.997535,10.7219889 C44.997535,11.8341436 45.4017181,12.7634009 46.7746499,12.7634009 C47.8895124,12.7634009 48.7134252,12.135532 49.3526279,11.5856902 C49.625598,12.5688736 50.4679826,13.0574713 51.8265211,13.0574713 C52.7821039,13.0574713 53.7871132,12.7407118 54.2649047,12.4572955 L54.0012957,10.8068118 C53.6223576,11.0068705 53.1610418,11.173586 52.6502993,11.173586 C51.8594723,11.173586 51.7111921,10.6734395 51.8265211,9.90654818 L52.3866902,5.95539058 L52.4005922,5.84787589 L54.773537,5.84787589 L54.773537,5.84787589 Z M1.54719565,6.1653404 C1.81465588,6.1653404 2.06332188,6.22722633 2.01793277,6.44970302 L1.54636955,9.885882 C1.49919403,10.1920411 1.48346898,10.514314 1.48346898,10.7721322 C1.5306445,12.0612233 2.14392585,12.6896551 3.33903808,12.6896551 C4.56560078,12.6896551 5.41475953,11.9645415 6.29536875,11.1910867 L6.34254427,11.2072004 L6.16956743,12.5285187 L8.31881343,12.5285189 C8.31881343,12.5285189 8.51261657,10.8527004 8.54406703,10.6754504 L9.20452372,5.76079051 C9.23597418,5.51908593 9.38127098,4.21578038 9.38127098,4.21578038 L7.04677637,4.16552644 C7.04677637,4.16552644 6.89292487,5.50297229 6.86147458,5.76079051 L6.37399455,9.45081382 C5.839339,9.93422291 5.0059053,10.6109958 4.32972338,10.6109958 C3.85796858,10.6109958 3.82651812,10.1759275 3.92086915,9.49915473 L4.25271385,7.06022871 C4.25271385,7.06022871 4.3297232,6.38048255 4.3297232,6.1011866 C4.3297232,4.98151502 3.92789448,4.04597702 2.56296058,4.04597702 C1.45459233,4.04597702 0.635479167,4.67808955 0,5.23164776 C1.83333333e-07,5.37764735 0.00562045,6.07817507 0.00562045,6.07817507 L0.0133525333,6.92466089 C0.4641736,6.55684389 1.0499434,6.1653404 1.54719565,6.1653404 L1.54719565,6.1653404 Z" id="logo" fill="#F5F5F5" sketch:type="MSShapeGroup"></path>
    </g>
</svg>